<svg width="200" height="30" viewBox="0 0 200 30" fill="none" xmlns="http://www.w3.org/2000/svg">
<g clip-path="url(#clip0_16423_78715)">
<path d="M17.7554 27.5225H12.9474L8.79185 21.2377L4.63633 27.5225H0L6.45652 18.3185L0.618177 9.66406H5.49491L8.99791 15.262L12.7413 9.66406H17.1716L11.4019 18.1125L17.7554 27.5225Z" fill="#E0EC89"></path>
<path d="M22.4401 7.01815H14.7129V3H34.7693V7.01815H27.0077V27.521H22.4401V7.01815Z" fill="#E0EC89"></path>
<path d="M33.4814 9.66065H37.7057V12.1677C39.0326 10.2913 40.7388 9.35156 42.8228 9.35156C43.1428 9.35156 43.4457 9.36405 43.7329 9.38591C44.0186 9.40932 44.2761 9.44366 44.5056 9.48894L43.9905 13.301C43.4862 13.1637 42.9477 13.095 42.3763 13.095C41.805 13.095 41.2602 13.1808 40.745 13.3525C40.2299 13.5243 39.7428 13.8052 39.2854 14.194C38.8265 14.5608 38.4659 15.0073 38.2036 15.5333C37.9398 16.061 37.8087 16.6901 37.8087 17.4222V27.5191H33.4814V9.66065Z" fill="#E0EC89"></path>
<path d="M61.0028 27.5212H56.9846V25.3233C56.2978 26.1022 55.4845 26.7376 54.5463 27.2293C53.6065 27.721 52.4732 27.9677 51.1463 27.9677C49.337 27.9677 47.8665 27.5041 46.7332 26.5768C45.5999 25.6495 45.0332 24.3164 45.0332 22.5758C45.0332 21.4081 45.2783 20.4356 45.7716 19.6566C46.2633 18.8792 46.933 18.2657 47.7807 17.8193C48.6267 17.3728 49.5946 17.0528 50.6827 16.8577C51.7692 16.6641 52.9087 16.5439 54.0998 16.4971L56.8473 16.394V15.7415C56.8473 14.5052 56.5834 13.6076 56.0574 13.0456C55.5297 12.4852 54.6836 12.2042 53.516 12.2042C52.3483 12.2042 51.5241 12.4055 50.9746 12.8052C50.4251 13.2064 50.0582 13.773 49.8756 14.5052L45.9948 14.1617C46.3148 12.4227 47.1156 11.1458 48.3988 10.3325C49.6805 9.52072 51.432 9.11328 53.6533 9.11328C56.3087 9.11328 58.1976 9.71429 59.32 10.9163C60.4408 12.1183 61.0028 13.8526 61.0028 16.1193V27.5212ZM50.3049 20.1031C49.5837 20.6307 49.2231 21.3863 49.2231 22.3697C49.2231 23.1034 49.451 23.692 49.9099 24.1384C50.3673 24.5849 51.1119 24.8081 52.1422 24.8081C53.5612 24.8081 54.7008 24.4428 55.5594 23.7091C56.418 22.977 56.8473 21.9467 56.8473 20.6182V19.1071L54.3059 19.2102C52.3592 19.2789 51.0261 19.577 50.3049 20.1031Z" fill="#E0EC89"></path>
<path d="M81.0078 27.521H76.8179V25.1857C76.1076 26.1254 75.2943 26.8404 74.3795 27.3321C73.4632 27.8239 72.3876 28.0705 71.1513 28.0705C69.5028 28.0705 68.1291 27.6693 67.0301 26.8685C65.9311 26.0677 65.1069 24.9625 64.5574 23.5544C64.0079 22.1463 63.7332 20.5384 63.7332 18.7292C63.7332 15.7538 64.4247 13.406 65.8109 11.6888C67.1956 9.97167 69.0907 9.11309 71.4947 9.11309C72.4329 9.11309 73.3539 9.30197 74.2593 9.67975C75.1632 10.0575 75.9703 10.7054 76.6805 11.6201V3H81.0078V27.521ZM70.2755 23.9665C70.9046 24.3443 71.5743 24.5332 72.2846 24.5332C73.6802 24.5332 74.7682 24.0586 75.5472 23.1079C76.3246 22.1588 76.7149 20.8241 76.7149 19.107V18.1453C76.7149 16.2455 76.3309 14.8437 75.5644 13.9383C74.7963 13.0345 73.7614 12.5817 72.4563 12.5817C71.1513 12.5817 70.1663 13.0454 69.3654 13.9726C68.5631 14.8999 68.1634 16.4407 68.1634 18.5918C68.1634 20.0576 68.357 21.2253 68.7473 22.0948C69.136 22.9659 69.6449 23.5887 70.2755 23.9665Z" fill="#E0EC89"></path>
<path d="M92.5049 28.0707C89.7106 28.0707 87.5595 27.2527 86.0484 25.6152C84.5373 23.9792 83.7817 21.6829 83.7817 18.7294C83.7817 16.6688 84.147 14.9235 84.8807 13.492C85.6129 12.0621 86.6322 10.9741 87.9373 10.2294C89.2423 9.48637 90.7534 9.11328 92.4706 9.11328C94.3251 9.11328 95.8581 9.48637 97.0726 10.2294C98.2855 10.9741 99.1893 12.0106 99.7857 13.3375C100.38 14.6659 100.679 16.2114 100.679 17.9738V19.588H88.0403C88.1308 21.3051 88.543 22.6102 89.2766 23.5031C90.0088 24.396 91.0734 24.8425 92.4706 24.8425C93.6835 24.8425 94.5873 24.6145 95.1837 24.1556C95.7784 23.6982 96.1796 23.0566 96.3857 22.2324H100.438C100.14 24.0651 99.3392 25.495 98.0342 26.5253C96.7291 27.5556 94.8855 28.0707 92.5049 28.0707ZM95.5614 13.4405C94.9885 12.6397 93.9582 12.2385 92.4706 12.2385C90.9829 12.2385 89.9167 12.6678 89.2766 13.5264C88.6351 14.385 88.2339 15.512 88.0746 16.9092H96.5231C96.4544 15.3981 96.1328 14.2429 95.5614 13.4405Z" fill="#E0EC89"></path>
<path d="M167.019 27.5264L168.803 20.4189L170.589 27.5264H192.518V21.777L195.908 27.5264H198.998V16.3633H195.908V22.1126L192.518 16.3633H174.032L172.545 23.2163L170.589 16.3633H167.019L165.063 23.2163L163.575 16.3633H152.343V20.3689H148.954V16.3633H145.863V27.5264H148.954V23.2147H152.343V27.5264H167.017H167.019ZM178.246 24.9897H176.636V18.9062H178.246C179.925 18.9062 181.287 20.2675 181.287 21.9472C181.287 23.6269 179.925 24.9881 178.246 24.9881V24.9897ZM189.428 24.9897H184.492V23.2163H188.009V20.6749H184.492V18.9078H189.428V24.9897ZM158.605 25.1723C157.084 25.1723 155.654 24.0062 155.654 21.955C155.654 19.9038 157.086 18.7236 158.605 18.7236C160.124 18.7236 161.541 19.9038 161.541 21.955C161.541 24.0062 160.095 25.1723 158.605 25.1723Z" fill="white"></path>
<path d="M114.077 19.1289H119.283V20.0811H115.157V22.8317H119.024V23.8074H115.157V27.5211H114.077V19.1305V19.1289Z" fill="white"></path>
<path d="M120.563 21.4421H121.573V22.3818C121.801 22.0447 122.067 21.7871 122.372 21.606C122.678 21.4265 123.003 21.3359 123.348 21.3359C123.576 21.3359 123.756 21.3515 123.888 21.3828L123.759 22.335C123.681 22.3194 123.603 22.3054 123.525 22.2944C123.446 22.2819 123.361 22.2773 123.265 22.2773C123.078 22.2773 122.888 22.31 122.696 22.3772C122.504 22.4443 122.318 22.5551 122.138 22.7112C121.965 22.8611 121.831 23.0328 121.732 23.2279C121.634 23.4231 121.586 23.651 121.586 23.9101V27.5177H120.563V21.4421Z" fill="white"></path>
<path d="M124.441 24.4978C124.441 23.8328 124.563 23.2583 124.805 22.7759C125.047 22.2936 125.392 21.9205 125.838 21.6535C126.285 21.3866 126.806 21.2539 127.401 21.2539C127.995 21.2539 128.536 21.3835 128.97 21.641C129.404 21.9002 129.739 22.2686 129.975 22.7463C130.211 23.224 130.328 23.7922 130.328 24.4509C130.328 25.1097 130.207 25.6935 129.97 26.1775C129.731 26.663 129.389 27.0392 128.948 27.3061C128.504 27.5715 127.978 27.7057 127.366 27.7057C126.442 27.7057 125.723 27.4201 125.211 26.8472C124.697 26.2758 124.441 25.4922 124.441 24.4962V24.4978ZM125.523 24.4744C125.523 25.1722 125.668 25.7435 125.957 26.19C126.247 26.6364 126.72 26.8597 127.379 26.8597C127.817 26.8597 128.173 26.7582 128.448 26.5537C128.723 26.3507 128.924 26.0666 129.054 25.7013C129.183 25.3376 129.247 24.9239 129.247 24.4619C129.247 23.7641 129.101 23.1959 128.807 22.7588C128.514 22.3201 128.038 22.1 127.379 22.1C126.72 22.1 126.256 22.3217 125.963 22.7634C125.669 23.2068 125.523 23.7766 125.523 24.4728V24.4744Z" fill="white"></path>
<path d="M131.705 21.4451H132.715V22.374C132.989 21.9978 133.291 21.7183 133.62 21.5341C133.949 21.3499 134.287 21.2578 134.632 21.2578C135.086 21.2578 135.453 21.3562 135.731 21.5513C136.008 21.748 136.214 22.029 136.347 22.3974C136.903 21.6371 137.593 21.2578 138.416 21.2578C139.01 21.2578 139.471 21.4202 139.797 21.7449C140.123 22.0696 140.284 22.5925 140.284 23.3137V27.5208H139.262V23.5479C139.262 22.9921 139.17 22.6175 138.985 22.4255C138.801 22.2335 138.537 22.1382 138.192 22.1382C138.019 22.1382 137.833 22.1695 137.633 22.2319C137.434 22.2944 137.24 22.4036 137.053 22.5613C136.897 22.694 136.767 22.8548 136.666 23.0437C136.564 23.231 136.513 23.448 136.513 23.6899V27.5208H135.49V23.5604C135.49 23.028 135.398 22.6581 135.214 22.4489C135.03 22.2413 134.764 22.1382 134.421 22.1382C134.021 22.1382 133.645 22.3022 133.292 22.6315C133.159 22.758 133.031 22.9172 132.911 23.1139C132.79 23.3106 132.729 23.5713 132.729 23.9022V27.5223H131.706V21.4467L131.705 21.4451Z" fill="white"></path>
</g>
<defs>
<clipPath id="clip0_16423_78715">
<rect width="199" height="25.0705" fill="white" transform="translate(0 3)"></rect>
</clipPath>
</defs>
</svg>